<svg width="1440" height="26" viewBox="0 0 1440 26" fill="none" xmlns="http://www.w3.org/2000/svg">
<g opacity="0.25">
<path d="M0 6.60156C34.2864 6.60156 34.2863 19.243 68.5727 19.243C102.859 19.243 102.859 6.60156 137.132 6.60156C171.405 6.60156 171.418 19.243 205.705 19.243C239.991 19.243 239.991 6.60156 274.277 6.60156C308.564 6.60156 308.564 19.243 342.837 19.243C377.11 19.243 377.123 6.60156 411.409 6.60156C445.696 6.60156 445.696 19.243 479.982 19.243C514.268 19.243 514.268 6.60156 548.555 6.60156C582.841 6.60156 582.828 19.243 617.114 19.243C651.4 19.243 651.4 6.60156 685.687 6.60156C719.973 6.60156 719.973 19.243 754.246 19.243C788.519 19.243 788.532 6.60156 822.819 6.60156C857.105 6.60156 857.105 19.243 891.405 19.243C925.705 19.243 925.678 6.60156 959.964 6.60156C994.251 6.60156 994.264 19.243 1028.55 19.243C1062.84 19.243 1062.84 6.60156 1097.11 6.60156C1131.38 6.60156 1131.4 19.243 1165.68 19.243C1199.97 19.243 1199.97 6.60156 1234.27 6.60156C1268.57 6.60156 1268.55 19.243 1302.84 19.243C1337.13 19.243 1337.13 6.60156 1371.41 6.60156C1405.7 6.60156 1405.71 19.243 1440 19.243" fill="black"/>
<path d="M0 6.60156C34.2864 6.60156 34.2863 19.243 68.5727 19.243C102.859 19.243 102.859 6.60156 137.132 6.60156C171.405 6.60156 171.418 19.243 205.705 19.243C239.991 19.243 239.991 6.60156 274.277 6.60156C308.564 6.60156 308.564 19.243 342.837 19.243C377.11 19.243 377.123 6.60156 411.409 6.60156C445.696 6.60156 445.696 19.243 479.982 19.243C514.268 19.243 514.268 6.60156 548.555 6.60156C582.841 6.60156 582.828 19.243 617.114 19.243C651.4 19.243 651.4 6.60156 685.687 6.60156C719.973 6.60156 719.973 19.243 754.246 19.243C788.519 19.243 788.532 6.60156 822.819 6.60156C857.105 6.60156 857.105 19.243 891.405 19.243C925.705 19.243 925.678 6.60156 959.964 6.60156C994.251 6.60156 994.264 19.243 1028.55 19.243C1062.84 19.243 1062.84 6.60156 1097.11 6.60156C1131.38 6.60156 1131.4 19.243 1165.68 19.243C1199.97 19.243 1199.97 6.60156 1234.27 6.60156C1268.57 6.60156 1268.55 19.243 1302.84 19.243C1337.13 19.243 1337.13 6.60156 1371.41 6.60156C1405.7 6.60156 1405.71 19.243 1440 19.243" stroke="black" stroke-width="13" stroke-miterlimit="10"/>
</g>
</svg>
